<svg width="25" height="25" viewBox="0 0 25 25" fill="none" xmlns="http://www.w3.org/2000/svg">
<path d="M21.6899 1.75H3.68525C2.86025 1.75 2.18994 2.42969 2.18994 3.26406V21.2359C2.18994 22.0703 2.86025 22.75 3.68525 22.75H21.6899C22.5149 22.75 23.1899 22.0703 23.1899 21.2359V3.26406C23.1899 2.42969 22.5149 1.75 21.6899 1.75ZM8.53682 19.75H5.42432V9.72812H8.5415V19.75H8.53682ZM6.98057 8.35938C5.98213 8.35938 5.17588 7.54844 5.17588 6.55469C5.17588 5.56094 5.98213 4.75 6.98057 4.75C7.97432 4.75 8.78525 5.56094 8.78525 6.55469C8.78525 7.55312 7.979 8.35938 6.98057 8.35938ZM20.204 19.75H17.0915V14.875C17.0915 13.7125 17.0681 12.2172 15.4743 12.2172C13.8524 12.2172 13.604 13.4828 13.604 14.7906V19.75H10.4915V9.72812H13.4774V11.0969H13.5196C13.9368 10.3094 14.954 9.47969 16.4681 9.47969C19.6181 9.47969 20.204 11.5562 20.204 14.2562V19.75Z" fill="#F76F32"/>
</svg>
