<svg width="25" height="25" viewBox="0 0 25 25" fill="none" xmlns="http://www.w3.org/2000/svg">
<path d="M12.8799 9.74969C12.3854 9.74987 11.9021 9.89667 11.491 10.1715C11.08 10.4464 10.7597 10.8369 10.5706 11.2938C10.3815 11.7507 10.3321 12.2534 10.4287 12.7384C10.5252 13.2233 10.7635 13.6687 11.1132 14.0183C11.4629 14.3679 11.9084 14.6059 12.3934 14.7023C12.8784 14.7987 13.381 14.7492 13.8379 14.5599C14.2947 14.3706 14.6851 14.0502 14.9598 13.639C15.2345 13.2278 15.3811 12.7445 15.3811 12.25C15.3806 11.5869 15.1169 10.951 14.6479 10.4822C14.1789 10.0134 13.543 9.74994 12.8799 9.74969ZM18.7257 7.82781C18.5984 7.50524 18.4062 7.21226 18.161 6.96705C17.9157 6.72184 17.6228 6.52963 17.3002 6.40234C16.3158 6.01375 13.9721 6.10094 12.8799 6.10094C11.7877 6.10094 9.44629 6.01047 8.4591 6.40234C8.13653 6.52963 7.84355 6.72184 7.59834 6.96705C7.35313 7.21226 7.16092 7.50524 7.03363 7.82781C6.64551 8.81219 6.73223 11.1583 6.73223 12.2495C6.73223 13.3408 6.64551 15.6841 7.03551 16.6717C7.16279 16.9943 7.355 17.2873 7.60021 17.5325C7.84542 17.7777 8.1384 17.9699 8.46098 18.0972C9.44535 18.4858 11.7891 18.3986 12.8818 18.3986C13.9744 18.3986 16.3149 18.4891 17.3021 18.0972C17.6246 17.9699 17.9176 17.7777 18.1628 17.5325C18.408 17.2873 18.6003 16.9943 18.7275 16.6717C19.1189 15.6873 19.0289 13.3413 19.0289 12.25C19.0289 11.1587 19.1189 8.81594 18.7275 7.82828L18.7257 7.82781ZM12.8799 16.0938C12.1197 16.0938 11.3765 15.8683 10.7444 15.446C10.1123 15.0236 9.61965 14.4233 9.32872 13.7209C9.0378 13.0186 8.96168 12.2457 9.10999 11.5001C9.2583 10.7545 9.62438 10.0696 10.1619 9.53206C10.6995 8.9945 11.3844 8.62842 12.13 8.48011C12.8756 8.33179 13.6485 8.40791 14.3508 8.69884C15.0532 8.98976 15.6535 9.48243 16.0758 10.1145C16.4982 10.7466 16.7236 11.4898 16.7236 12.25C16.7242 12.7549 16.6252 13.255 16.4323 13.7217C16.2394 14.1883 15.9562 14.6123 15.5992 14.9693C15.2422 15.3264 14.8182 15.6095 14.3516 15.8024C13.8849 15.9954 13.3848 16.0944 12.8799 16.0938ZM16.8821 9.14219C16.7046 9.14228 16.5311 9.08974 16.3835 8.99121C16.2359 8.89268 16.1208 8.7526 16.0528 8.58866C15.9849 8.42473 15.967 8.24432 16.0016 8.07026C16.0362 7.89619 16.1216 7.73628 16.247 7.61076C16.3725 7.48524 16.5323 7.39974 16.7064 7.36509C16.8804 7.33043 17.0609 7.34817 17.2248 7.41606C17.3888 7.48395 17.5289 7.59895 17.6276 7.7465C17.7262 7.89405 17.7788 8.06753 17.7788 8.245C17.7793 8.36285 17.7565 8.47964 17.7118 8.58866C17.667 8.69769 17.6012 8.79681 17.5181 8.88034C17.4349 8.96387 17.3361 9.03016 17.2273 9.07542C17.1185 9.12067 17.0018 9.144 16.8839 9.14406L16.8821 9.14219ZM21.1299 1.75H4.62988C4.03315 1.75 3.46085 1.98705 3.03889 2.40901C2.61694 2.83097 2.37988 3.40326 2.37988 4L2.37988 20.5C2.37988 21.0967 2.61694 21.669 3.03889 22.091C3.46085 22.5129 4.03315 22.75 4.62988 22.75H21.1299C21.7266 22.75 22.2989 22.5129 22.7209 22.091C23.1428 21.669 23.3799 21.0967 23.3799 20.5V4C23.3799 3.40326 23.1428 2.83097 22.7209 2.40901C22.2989 1.98705 21.7266 1.75 21.1299 1.75ZM20.3274 15.3438C20.2669 16.5452 19.9927 17.6097 19.1157 18.4844C18.2386 19.3591 17.175 19.6389 15.975 19.6961C14.7371 19.7659 11.0255 19.7659 9.78754 19.6961C8.58613 19.6356 7.52535 19.3609 6.64691 18.4844C5.76848 17.6078 5.49238 16.5428 5.4352 15.3438C5.36535 14.1053 5.36535 10.3933 5.4352 9.15625C5.49566 7.95484 5.7666 6.89031 6.64691 6.01562C7.52723 5.14094 8.59082 4.86438 9.78754 4.80719C11.0255 4.73734 14.7371 4.73734 15.975 4.80719C17.1764 4.86766 18.2405 5.14234 19.1157 6.01891C19.9908 6.89547 20.2702 7.96047 20.3274 9.16187C20.3972 10.3956 20.3972 14.1044 20.3274 15.3438Z" fill="#F76F32"/>
</svg>
