<svg width="25" height="25" viewBox="0 0 25 25" fill="none" xmlns="http://www.w3.org/2000/svg">
<path d="M24.3106 7.39492C24.3106 5.28555 22.759 3.58867 20.8419 3.58867C18.245 3.4668 15.5965 3.41992 12.8918 3.41992H12.0481C9.3481 3.41992 6.69497 3.4668 4.0981 3.58867C2.1856 3.58867 0.634036 5.29492 0.634036 7.4043C0.516848 9.07305 0.465286 10.7418 0.469973 12.4105C0.465286 14.0793 0.516848 15.748 0.629348 17.4215C0.629348 19.5309 2.18091 21.2418 4.09341 21.2418C6.82154 21.3684 9.61997 21.4246 12.4653 21.4199C15.3153 21.4293 18.1043 21.373 20.8372 21.2418C22.7543 21.2418 24.3059 19.5309 24.3059 17.4215C24.4184 15.748 24.47 14.0793 24.4653 12.4059C24.4747 10.7371 24.4231 9.06836 24.3106 7.39492ZM10.1731 17.009V7.79805L16.97 12.4012L10.1731 17.009Z" fill="#F76F32"/>
</svg>
