<svg width="25" height="25" viewBox="0 0 25 25" fill="none" xmlns="http://www.w3.org/2000/svg">
<path fill-rule="evenodd" clip-rule="evenodd" d="M6.36002 5.31004C7.93541 3.73465 10.0721 2.84961 12.3 2.84961C14.528 2.84961 16.6646 3.73465 18.24 5.31004C19.8154 6.88542 20.7004 9.02211 20.7004 11.25C20.7004 13.478 19.8154 15.6147 18.24 17.19L12.3 23.13L6.36002 17.19C5.57992 16.41 4.9611 15.484 4.53891 14.4648C4.11671 13.4456 3.89941 12.3532 3.89941 11.25C3.89941 10.1469 4.11671 9.05449 4.53891 8.0353C4.9611 7.01611 5.57992 6.09006 6.36002 5.31004ZM12.3 13.65C12.9365 13.65 13.547 13.3972 13.9971 12.9471C14.4472 12.497 14.7 11.8866 14.7 11.25C14.7 10.6135 14.4472 10.0031 13.9971 9.55298C13.547 9.10289 12.9365 8.85004 12.3 8.85004C11.6635 8.85004 11.0531 9.10289 10.603 9.55298C10.1529 10.0031 9.90002 10.6135 9.90002 11.25C9.90002 11.8866 10.1529 12.497 10.603 12.9471C11.0531 13.3972 11.6635 13.65 12.3 13.65Z" fill="#F76F32"/>
</svg>
