<svg width="25" height="25" viewBox="0 0 25 25" fill="none" xmlns="http://www.w3.org/2000/svg">
<path d="M12.88 9.91961C12.3855 9.9198 11.9022 10.0666 11.4912 10.3414C11.0801 10.6163 10.7598 11.0069 10.5707 11.4637C10.3816 11.9206 10.3322 12.4233 10.4288 12.9083C10.5254 13.3932 10.7636 13.8387 11.1133 14.1882C11.463 14.5378 11.9085 14.7759 12.3935 14.8723C12.8785 14.9687 13.3812 14.9191 13.838 14.7298C14.2948 14.5406 14.6852 14.2201 14.9599 13.8089C15.2346 13.3978 15.3813 12.9144 15.3813 12.4199C15.3808 11.7568 15.117 11.121 14.6481 10.6522C14.1791 10.1833 13.5431 9.91986 12.88 9.91961ZM18.7258 7.99773C18.5985 7.67516 18.4063 7.38218 18.1611 7.13697C17.9159 6.89176 17.6229 6.69955 17.3003 6.57227C16.3159 6.18367 13.9722 6.27086 12.88 6.27086C11.7878 6.27086 9.44641 6.18039 8.45922 6.57227C8.13665 6.69955 7.84367 6.89176 7.59846 7.13697C7.35325 7.38218 7.16104 7.67516 7.03375 7.99773C6.64563 8.98211 6.73235 11.3282 6.73235 12.4195C6.73235 13.5107 6.64563 15.854 7.03563 16.8416C7.16292 17.1642 7.35513 17.4572 7.60034 17.7024C7.84555 17.9476 8.13852 18.1398 8.4611 18.2671C9.44547 18.6557 11.7892 18.5685 12.8819 18.5685C13.9745 18.5685 16.315 18.659 17.3022 18.2671C17.6248 18.1398 17.9177 17.9476 18.163 17.7024C18.4082 17.4572 18.6004 17.1642 18.7277 16.8416C19.1191 15.8573 19.0291 13.5112 19.0291 12.4199C19.0291 11.3287 19.1191 8.98586 18.7277 7.9982L18.7258 7.99773ZM12.88 16.2637C12.1198 16.2637 11.3766 16.0382 10.7445 15.6159C10.1124 15.1935 9.61977 14.5932 9.32884 13.8909C9.03792 13.1885 8.9618 12.4157 9.11011 11.67C9.25842 10.9244 9.62451 10.2395 10.1621 9.70198C10.6996 9.16442 11.3845 8.79834 12.1301 8.65003C12.8757 8.50172 13.6486 8.57784 14.3509 8.86876C15.0533 9.15968 15.6536 9.65235 16.076 10.2844C16.4983 10.9165 16.7238 11.6597 16.7238 12.4199C16.7244 12.9249 16.6254 13.425 16.4324 13.8916C16.2395 14.3582 15.9564 14.7822 15.5993 15.1392C15.2423 15.4963 14.8183 15.7794 14.3517 15.9723C13.885 16.1653 13.3849 16.2643 12.88 16.2637ZM16.8822 9.31211C16.7047 9.3122 16.5312 9.25966 16.3836 9.16113C16.236 9.06261 16.1209 8.92252 16.053 8.75859C15.985 8.59465 15.9672 8.41425 16.0017 8.24018C16.0363 8.06611 16.1217 7.9062 16.2472 7.78068C16.3726 7.65516 16.5325 7.56966 16.7065 7.53501C16.8806 7.50035 17.061 7.51809 17.225 7.58598C17.3889 7.65388 17.5291 7.76887 17.6277 7.91642C17.7263 8.06397 17.7789 8.23745 17.7789 8.41492C17.7794 8.53277 17.7566 8.64956 17.7119 8.75859C17.6671 8.86761 17.6013 8.96673 17.5182 9.05026C17.435 9.13379 17.3362 9.20009 17.2274 9.24534C17.1186 9.2906 17.0019 9.31392 16.8841 9.31398L16.8822 9.31211ZM21.13 1.91992H4.63C4.03327 1.91992 3.46097 2.15697 3.03901 2.57893C2.61706 3.00089 2.38 3.57318 2.38 4.16992L2.38 20.6699C2.38 21.2667 2.61706 21.839 3.03901 22.2609C3.46097 22.6829 4.03327 22.9199 4.63 22.9199H21.13C21.7267 22.9199 22.299 22.6829 22.721 22.2609C23.143 21.839 23.38 21.2667 23.38 20.6699V4.16992C23.38 3.57318 23.143 3.00089 22.721 2.57893C22.299 2.15697 21.7267 1.91992 21.13 1.91992ZM20.3275 15.5137C20.267 16.7151 19.9928 17.7796 19.1158 18.6543C18.2388 19.529 17.1752 19.8088 15.9752 19.866C14.7372 19.9359 11.0256 19.9359 9.78766 19.866C8.58626 19.8055 7.52547 19.5309 6.64704 18.6543C5.7686 17.7777 5.4925 16.7127 5.43532 15.5137C5.36547 14.2752 5.36547 10.5632 5.43532 9.32617C5.49579 8.12477 5.76672 7.06023 6.64704 6.18555C7.52735 5.31086 8.59094 5.0343 9.78766 4.97711C11.0256 4.90727 14.7372 4.90727 15.9752 4.97711C17.1766 5.03758 18.2406 5.31227 19.1158 6.18883C19.9909 7.06539 20.2703 8.13039 20.3275 9.3318C20.3973 10.5655 20.3973 14.2743 20.3275 15.5137Z" fill="#F76F32"/>
</svg>
