<svg width="25" height="25" viewBox="0 0 25 25" fill="none" xmlns="http://www.w3.org/2000/svg">
<path d="M21.6229 7.53167C21.6382 7.74486 21.6382 7.95809 21.6382 8.17128C21.6382 14.6738 16.689 22.1662 7.64326 22.1662C4.85645 22.1662 2.26764 21.359 0.0899658 19.9581C0.485919 20.0037 0.866591 20.019 1.27778 20.019C3.57723 20.019 5.69401 19.2424 7.38437 17.9175C5.22193 17.8718 3.40975 16.4555 2.78537 14.5063C3.08997 14.552 3.39451 14.5824 3.71434 14.5824C4.15595 14.5824 4.59761 14.5215 5.00875 14.4149C2.75495 13.958 1.06454 11.9784 1.06454 9.58752V9.52662C1.71934 9.89211 2.48082 10.1205 3.28787 10.151C1.963 9.26769 1.09501 7.76009 1.09501 6.0545C1.09501 5.14081 1.33862 4.30325 1.76504 3.57228C4.18637 6.55705 7.82598 8.50625 11.9072 8.71948C11.831 8.354 11.7853 7.97333 11.7853 7.59261C11.7853 4.88192 13.9782 2.67383 16.7041 2.67383C18.1203 2.67383 19.3995 3.26773 20.298 4.22713C21.4097 4.01394 22.4756 3.60275 23.4198 3.03931C23.0543 4.18147 22.2777 5.14086 21.2574 5.74995C22.2473 5.64341 23.2067 5.36923 24.0899 4.98856C23.4199 5.96314 22.5823 6.83113 21.6229 7.53167Z" fill="#F76F32"/>
</svg>
