<svg width="25" height="25" viewBox="0 0 25 25" fill="none" xmlns="http://www.w3.org/2000/svg">
<path d="M21.8907 7.355L16.8469 12.4925C16.8094 12.53 16.8094 12.5863 16.8469 12.6238L20.3766 16.3831C20.6157 16.6222 20.6157 17.0066 20.3766 17.2456C20.2594 17.3628 20.1 17.4238 19.9454 17.4238C19.7907 17.4238 19.6313 17.3628 19.5141 17.2456L15.9985 13.5003C15.961 13.4628 15.9 13.4628 15.8625 13.5003L15.0047 14.3722C14.2875 15.0988 13.336 15.5019 12.3141 15.5066C11.2782 15.5113 10.2938 15.0753 9.56724 14.3394L8.74224 13.5003C8.70474 13.4628 8.6438 13.4628 8.6063 13.5003L5.09067 17.2456C4.97349 17.3628 4.81411 17.4238 4.65942 17.4238C4.50474 17.4238 4.34536 17.3628 4.22817 17.2456C3.98911 17.0066 3.98911 16.6222 4.22817 16.3831L7.75786 12.6238C7.79067 12.5863 7.79067 12.53 7.75786 12.4925L2.70942 7.355C2.64849 7.29406 2.55005 7.33625 2.55005 7.42063V17.7003C2.55005 18.5253 3.22505 19.2003 4.05005 19.2003H20.55C21.375 19.2003 22.05 18.5253 22.05 17.7003V7.42063C22.05 7.33625 21.9469 7.29875 21.8907 7.355Z" fill="#F76F32"/>
<path d="M12.3 14.283C12.9937 14.283 13.6453 14.0111 14.1328 13.5143L21.4875 6.02832C21.2297 5.82207 20.9109 5.7002 20.5594 5.7002H4.04531C3.69375 5.7002 3.37031 5.82207 3.11719 6.02832L10.4719 13.5143C10.9547 14.0064 11.6062 14.283 12.3 14.283Z" fill="#F76F32"/>
</svg>
