<svg width="25" height="25" viewBox="0 0 25 25" fill="none" xmlns="http://www.w3.org/2000/svg">
<path d="M21.6228 7.36175C21.638 7.57494 21.638 7.78817 21.638 8.00136C21.638 14.5039 16.6888 21.9963 7.64314 21.9963C4.85633 21.9963 2.26752 21.1891 0.0898438 19.7882C0.485797 19.8338 0.866469 19.8491 1.27766 19.8491C3.57711 19.8491 5.69389 19.0724 7.38425 17.7476C5.22181 17.7019 3.40962 16.2856 2.78525 14.3364C3.08984 14.382 3.39439 14.4125 3.71422 14.4125C4.15583 14.4125 4.59748 14.3516 5.00862 14.245C2.75483 13.7881 1.06442 11.8085 1.06442 9.41759V9.3567C1.71922 9.72219 2.4807 9.95061 3.28775 9.98103C1.96287 9.09777 1.09489 7.59017 1.09489 5.88458C1.09489 4.97089 1.3385 4.13333 1.76492 3.40236C4.18625 6.38713 7.82586 8.33633 11.907 8.54956C11.8309 8.18408 11.7852 7.80341 11.7852 7.42269C11.7852 4.712 13.9781 2.50391 16.704 2.50391C18.1202 2.50391 19.3994 3.09781 20.2979 4.0572C21.4095 3.84402 22.4755 3.43283 23.4197 2.86939C23.0542 4.01155 22.2776 4.97094 21.2573 5.58003C22.2471 5.47348 23.2065 5.19931 24.0897 4.81864C23.4198 5.79322 22.5822 6.6612 21.6228 7.36175Z" fill="#F76F32"/>
</svg>
