<svg width="25" height="25" viewBox="0 0 25 25" fill="none" xmlns="http://www.w3.org/2000/svg">
<path fill-rule="evenodd" clip-rule="evenodd" d="M6.36005 5.48973C7.93544 3.91434 10.0721 3.0293 12.3001 3.0293C14.528 3.0293 16.6647 3.91434 18.2401 5.48973C19.8154 7.06511 20.7005 9.20179 20.7005 11.4297C20.7005 13.6577 19.8154 15.7943 18.2401 17.3697L12.3001 23.3097L6.36005 17.3697C5.57995 16.5897 4.96113 15.6637 4.53894 14.6445C4.11675 13.6253 3.89944 12.5329 3.89944 11.4297C3.89944 10.3266 4.11675 9.23418 4.53894 8.21499C4.96113 7.1958 5.57995 6.26975 6.36005 5.48973ZM12.3001 13.8297C12.9366 13.8297 13.547 13.5769 13.9971 13.1268C14.4472 12.6767 14.7001 12.0662 14.7001 11.4297C14.7001 10.7932 14.4472 10.1828 13.9971 9.73267C13.547 9.28258 12.9366 9.02973 12.3001 9.02973C11.6635 9.02973 11.0531 9.28258 10.603 9.73267C10.1529 10.1828 9.90005 10.7932 9.90005 11.4297C9.90005 12.0662 10.1529 12.6767 10.603 13.1268C11.0531 13.5769 11.6635 13.8297 12.3001 13.8297Z" fill="#F76F32"/>
</svg>
