<svg width="25" height="25" viewBox="0 0 25 25" fill="none" xmlns="http://www.w3.org/2000/svg">
<path d="M24.3106 7.225C24.3106 5.11563 22.7591 3.41875 20.8419 3.41875C18.245 3.29687 15.5966 3.25 12.8919 3.25H12.0481C9.34814 3.25 6.69502 3.29687 4.09814 3.41875C2.18564 3.41875 0.634082 5.125 0.634082 7.23438C0.516894 8.90312 0.465332 10.5719 0.470019 12.2406C0.465332 13.9094 0.516894 15.5781 0.629394 17.2516C0.629394 19.3609 2.18096 21.0719 4.09346 21.0719C6.82158 21.1984 9.62002 21.2547 12.4653 21.25C15.3153 21.2594 18.1044 21.2031 20.8372 21.0719C22.7544 21.0719 24.306 19.3609 24.306 17.2516C24.4185 15.5781 24.47 13.9094 24.4653 12.2359C24.4747 10.5672 24.4231 8.89844 24.3106 7.225ZM10.1731 16.8391V7.62812L16.97 12.2313L10.1731 16.8391Z" fill="#F76F32"/>
</svg>
