<svg width="25" height="25" viewBox="0 0 25 25" fill="none" xmlns="http://www.w3.org/2000/svg">
<path d="M21.6899 1.91992H3.68525C2.86025 1.91992 2.18994 2.59961 2.18994 3.43398V21.4059C2.18994 22.2402 2.86025 22.9199 3.68525 22.9199H21.6899C22.5149 22.9199 23.1899 22.2402 23.1899 21.4059V3.43398C23.1899 2.59961 22.5149 1.91992 21.6899 1.91992ZM8.53682 19.9199H5.42432V9.89805H8.5415V19.9199H8.53682ZM6.98057 8.5293C5.98213 8.5293 5.17588 7.71836 5.17588 6.72461C5.17588 5.73086 5.98213 4.91992 6.98057 4.91992C7.97432 4.91992 8.78525 5.73086 8.78525 6.72461C8.78525 7.72305 7.979 8.5293 6.98057 8.5293ZM20.204 19.9199H17.0915V15.0449C17.0915 13.8824 17.0681 12.3871 15.4743 12.3871C13.8524 12.3871 13.604 13.6527 13.604 14.9605V19.9199H10.4915V9.89805H13.4774V11.2668H13.5196C13.9368 10.4793 14.954 9.64961 16.4681 9.64961C19.6181 9.64961 20.204 11.7262 20.204 14.4262V19.9199Z" fill="#F76F32"/>
</svg>
