<svg width="25" height="25" viewBox="0 0 25 25" fill="none" xmlns="http://www.w3.org/2000/svg">
<path d="M21.8907 7.53469L16.8469 12.6722C16.8094 12.7097 16.8094 12.7659 16.8469 12.8034L20.3766 16.5628C20.6157 16.8019 20.6157 17.1863 20.3766 17.4253C20.2594 17.5425 20.1 17.6034 19.9454 17.6034C19.7907 17.6034 19.6313 17.5425 19.5141 17.4253L15.9985 13.68C15.961 13.6425 15.9 13.6425 15.8625 13.68L15.0047 14.5519C14.2875 15.2784 13.336 15.6816 12.3141 15.6863C11.2782 15.6909 10.2938 15.255 9.56724 14.5191L8.74224 13.68C8.70474 13.6425 8.6438 13.6425 8.6063 13.68L5.09067 17.4253C4.97349 17.5425 4.81411 17.6034 4.65942 17.6034C4.50474 17.6034 4.34536 17.5425 4.22817 17.4253C3.98911 17.1863 3.98911 16.8019 4.22817 16.5628L7.75786 12.8034C7.79067 12.7659 7.79067 12.7097 7.75786 12.6722L2.70942 7.53469C2.64849 7.47375 2.55005 7.51594 2.55005 7.60031V17.88C2.55005 18.705 3.22505 19.38 4.05005 19.38H20.55C21.375 19.38 22.05 18.705 22.05 17.88V7.60031C22.05 7.51594 21.9469 7.47844 21.8907 7.53469Z" fill="#F76F32"/>
<path d="M12.3 14.4627C12.9938 14.4627 13.6454 14.1908 14.1329 13.6939L21.4875 6.20801C21.2297 6.00176 20.911 5.87988 20.5594 5.87988H4.04536C3.6938 5.87988 3.37036 6.00176 3.11723 6.20801L10.4719 13.6939C10.9547 14.1861 11.6063 14.4627 12.3 14.4627Z" fill="#F76F32"/>
</svg>
